<?xml version="1.0" standalone="no"?>
<!DOCTYPE svg PUBLIC "-//W3C//DTD SVG 20010904//EN"
 "http://www.w3.org/TR/2001/REC-SVG-20010904/DTD/svg10.dtd">
<svg version="1.0" xmlns="http://www.w3.org/2000/svg"
 width="768.000000pt" height="768.000000pt" viewBox="0 0 768.000000 768.000000"
 preserveAspectRatio="xMidYMid meet">
<metadata>
Created by potrace 1.14, written by Peter Selinger 2001-2017
</metadata>
<g transform="translate(0.000000,768.000000) scale(0.100000,-0.100000)"
fill="#000000" stroke="none">
<path d="M638 6242 l-38 -3 0 -2400 0 -2401 45 3 c24 2 47 0 51 -3 3 -4 17 -3
30 2 13 5 26 5 29 1 3 -5 21 -5 40 -1 19 4 35 4 35 0 0 -5 13 -5 30 0 16 5 32
5 34 1 3 -4 30 -4 61 -1 31 3 58 3 61 -2 3 -4 16 -3 29 2 13 5 27 5 30 1 3 -5
21 -5 40 -1 19 4 35 4 35 0 0 -5 13 -5 29 0 16 4 32 5 36 2 7 -8 102 -5 115 3
6 3 10 2 10 -4 0 -6 11 -6 30 -1 16 5 30 6 30 2 0 -8 194 -6 215 2 8 3 17 1
20 -4 3 -6 15 -6 29 0 13 5 27 6 30 2 8 -8 103 -5 116 3 6 3 10 2 10 -4 0 -6
11 -6 30 -1 17 5 30 5 30 1 0 -4 20 -5 45 -1 25 4 47 4 50 1 7 -6 113 -3 125
4 5 3 11 1 15 -4 3 -7 15 -7 29 -1 13 5 27 6 30 2 8 -8 103 -5 116 3 6 3 10 2
10 -4 0 -6 11 -6 30 -1 17 5 30 6 30 2 0 -8 194 -6 215 2 8 3 17 1 20 -4 3 -6
15 -6 29 0 13 5 27 6 30 2 8 -8 103 -5 116 3 6 3 10 2 10 -4 0 -6 11 -6 30 -1
17 5 30 5 30 1 0 -5 18 -5 39 -1 22 4 45 4 52 0 6 -4 25 -4 40 0 16 5 29 5 29
0 0 -5 13 -5 29 0 16 4 32 6 35 2 9 -8 217 -8 223 1 2 4 12 3 22 -3 10 -5 21
-7 24 -4 9 9 78 10 83 2 3 -4 15 -3 28 2 13 5 27 6 30 3 8 -8 76 -9 76 -1 0 4
13 3 30 -2 17 -5 30 -5 30 0 0 5 7 7 14 4 19 -7 166 -11 166 -4 0 7 99 4 106
-3 4 -3 17 -2 30 3 13 5 26 5 29 1 3 -5 21 -5 40 -1 19 4 35 4 35 0 0 -5 13
-5 30 0 16 5 32 5 34 1 3 -4 30 -4 61 -1 31 3 58 3 61 -2 3 -4 16 -3 29 2 13
5 27 5 30 1 3 -5 21 -5 40 -1 19 4 35 4 35 0 0 -5 13 -5 30 0 16 5 32 5 34 1
3 -4 30 -4 61 -1 31 3 58 3 61 -2 3 -4 16 -3 29 2 13 5 27 5 30 1 3 -5 21 -5
40 -1 19 4 35 4 35 0 0 -5 13 -5 30 0 16 5 32 5 34 1 3 -4 30 -4 61 -1 31 3
58 3 61 -2 3 -4 16 -3 29 2 13 5 27 5 30 1 3 -5 21 -5 40 -1 19 4 35 4 35 0 0
-5 13 -5 30 0 16 5 32 5 34 1 3 -4 30 -4 61 -1 31 3 58 3 61 -2 3 -4 16 -3 29
2 13 5 27 5 30 1 3 -5 21 -5 40 -1 19 4 35 4 35 0 0 -5 13 -5 30 0 16 5 32 5
34 1 3 -4 30 -4 61 -1 31 3 58 3 61 -2 3 -4 16 -3 29 2 13 5 27 5 30 1 3 -5
21 -5 40 -1 19 4 35 4 35 0 0 -5 13 -5 30 0 16 5 32 5 34 1 3 -4 30 -4 61 -1
31 3 58 3 61 -2 3 -4 16 -3 29 2 13 5 27 5 30 1 3 -5 21 -5 40 -1 19 4 35 4
35 0 0 -5 13 -5 30 0 16 5 32 5 34 1 3 -4 30 -4 61 -1 31 3 58 3 61 -2 3 -4
16 -3 29 2 13 5 27 5 30 1 3 -5 21 -5 40 -1 19 4 35 4 35 0 0 -5 13 -5 29 0
16 4 32 5 36 2 7 -8 102 -5 115 3 6 3 10 2 10 -4 0 -6 11 -6 30 -1 16 5 30 6
30 2 0 -4 52 -7 115 -7 63 0 115 3 115 7 0 4 14 3 30 -2 17 -5 30 -5 30 0 0 5
12 5 28 1 15 -4 39 -4 54 0 16 4 30 3 33 -1 3 -5 16 -5 30 0 15 6 27 6 30 -1
4 -5 11 -6 17 -3 6 4 24 7 39 6 16 0 29 2 29 5 0 5 -62 90 -95 130 -23 28 -32
40 -55 73 -13 19 -27 37 -30 40 -3 3 -18 23 -35 45 -16 22 -32 42 -35 45 -3 3
-31 39 -62 80 -55 74 -140 186 -156 205 -4 6 -59 78 -122 160 -63 83 -120 156
-127 163 -7 7 -13 16 -13 20 0 4 -14 22 -31 39 -16 18 -28 33 -25 33 4 0 -2 8
-11 18 -10 11 -26 30 -35 43 -19 27 -25 35 -106 139 -122 157 -259 337 -296
390 -22 30 -43 57 -46 60 -4 3 -42 52 -86 110 -43 58 -82 107 -86 108 -13 6
-9 29 5 29 47 1 188 16 217 23 19 5 51 11 70 14 39 6 187 43 210 53 8 3 17 7
20 8 84 22 350 148 350 165 0 6 5 10 11 10 36 0 227 169 300 265 13 17 26 32
29 35 14 12 90 140 115 195 26 58 74 184 80 215 2 8 8 36 14 63 6 26 13 62 16
80 3 17 8 48 12 67 8 50 9 405 0 470 -6 49 -10 76 -22 146 -7 47 -58 220 -71
246 -8 15 -14 30 -14 33 1 11 -64 141 -95 190 -66 103 -166 215 -244 273 -20
15 -38 30 -41 34 -13 17 -134 89 -211 125 -82 39 -247 99 -261 95 -4 -1 -19 3
-33 8 -14 5 -38 12 -53 15 -15 3 -36 7 -47 9 -42 8 -123 18 -190 22 -38 3 -81
6 -95 7 -14 1 -30 -1 -37 -6 -6 -4 -14 -4 -17 2 -4 6 -18 6 -36 1 -17 -5 -32
-5 -35 0 -3 6 -16 5 -29 0 -13 -5 -27 -6 -30 -2 -8 8 -103 5 -116 -3 -6 -3
-10 -2 -10 4 0 6 -11 6 -30 1 -17 -5 -30 -6 -30 -2 0 8 -194 6 -215 -2 -8 -3
-17 -1 -20 4 -3 6 -15 6 -29 0 -13 -5 -27 -6 -30 -2 -8 8 -103 5 -116 -3 -6
-3 -10 -2 -10 4 0 6 -11 6 -30 1 -16 -5 -30 -5 -30 -1 0 4 -20 5 -45 1 -25 -4
-47 -4 -50 -1 -7 6 -113 3 -125 -4 -5 -3 -11 -1 -15 4 -3 7 -15 7 -29 1 -13
-5 -27 -6 -30 -2 -8 8 -103 5 -116 -3 -6 -3 -10 -2 -10 4 0 6 -11 6 -30 1 -16
-5 -30 -6 -30 -2 0 4 -52 7 -115 7 -63 0 -115 -3 -115 -7 0 -4 -14 -3 -30 2
-17 5 -30 5 -30 0 0 -5 -7 -7 -14 -4 -19 7 -166 11 -166 4 0 -7 -99 -4 -106 3
-4 3 -17 2 -30 -3 -13 -5 -26 -5 -29 -1 -3 5 -21 5 -40 1 -19 -4 -35 -4 -35 0
0 5 -13 5 -30 0 -16 -5 -32 -5 -35 -1 -2 5 -22 5 -43 1 -21 -3 -47 -3 -58 0
-10 4 -26 4 -35 -1 -9 -5 -19 -5 -23 -2 -9 10 -279 10 -298 1 -10 -5 -18 -5
-18 -1 0 9 -85 7 -99 -2 -5 -3 -12 -1 -16 4 -3 6 -15 7 -29 1 -12 -4 -28 -5
-35 -1 -6 4 -32 5 -57 1 -24 -4 -47 -3 -49 1 -3 4 -19 4 -35 -1 -17 -5 -30 -5
-30 0 0 4 -16 4 -35 0 -19 -4 -35 -4 -35 0 0 5 -13 5 -30 0 -16 -5 -32 -5 -34
-1 -3 4 -30 4 -61 1 -30 -3 -58 -4 -61 -1 -6 7 -112 3 -124 -4 -5 -3 -11 -1
-15 4 -3 7 -15 7 -29 1 -13 -5 -27 -6 -30 -2 -8 8 -103 5 -116 -3 -6 -3 -10
-2 -10 4 0 6 -11 6 -30 1 -17 -5 -30 -6 -30 -2 0 8 -194 6 -215 -2 -8 -3 -17
-1 -20 4 -3 6 -15 6 -29 0 -13 -5 -27 -6 -30 -2 -8 8 -103 5 -116 -3 -6 -3
-10 -2 -10 4 0 6 -11 6 -30 1 -16 -5 -30 -5 -30 -1 0 4 -20 5 -45 1 -25 -4
-47 -4 -50 -1 -7 6 -113 3 -125 -4 -5 -3 -11 -1 -15 4 -3 7 -15 7 -30 1 -13
-5 -26 -6 -29 -2 -3 5 -30 5 -61 2 -30 -3 -58 -4 -61 -1 -6 7 -112 3 -124 -4
-5 -3 -11 -1 -15 4 -3 7 -15 7 -29 1 -13 -5 -27 -6 -30 -2 -8 8 -103 5 -116
-3 -6 -3 -10 -2 -10 4 0 6 -11 6 -30 1 -16 -5 -30 -6 -30 -2 0 7 -134 10 -202
4z"/>
</g>
</svg>
